<svg xmlns="http://www.w3.org/2000/svg" width="380.487" height="123.482" viewBox="0 0 380.487 123.482">
  <g id="Grupo_29" data-name="Grupo 29" transform="translate(0 0)">
    <g id="Grupo_27" data-name="Grupo 27" transform="translate(136.082)">
      <path id="Trazado_32" data-name="Trazado 32" d="M406.722,572.8q1.586-3.232,3.249-7.407t3.211-8.65q1.55-4.473,2.871-9.024t2.23-8.536h4.9q-1.364,5.339-3.031,10.528t-3.525,10.154q-1.858,4.963-3.867,9.551t-3.9,8.649H404.29q-1.97-4.062-3.942-8.649t-3.828-9.551q-1.857-4.963-3.526-10.154t-3.032-10.528h5.2q.908,3.987,2.23,8.536t2.872,9.024q1.548,4.475,3.212,8.65T406.722,572.8Z" transform="translate(-389.962 -523.692)" fill="#072146"/>
      <path id="Trazado_33" data-name="Trazado 33" d="M442.535,529.464a3.633,3.633,0,0,1-1.054,2.745,3.736,3.736,0,0,1-5.122,0,4.1,4.1,0,0,1,0-5.49,3.739,3.739,0,0,1,5.122,0A3.635,3.635,0,0,1,442.535,529.464Zm-1.129,50.614h-4.9V541.2h4.9Z" transform="translate(-383.193 -525.704)" fill="#072146"/>
      <path id="Trazado_34" data-name="Trazado 34" d="M476.417,538.53a26.428,26.428,0,0,1,4.558.376,14.015,14.015,0,0,1,2.976.752l-.979,4.212a11,11,0,0,0-2.448-.64,28.035,28.035,0,0,0-4.859-.339,23.045,23.045,0,0,0-5.086.452,14.191,14.191,0,0,0-2.522.752v34.07h-4.9V541.086a36.281,36.281,0,0,1,5.2-1.692A32.4,32.4,0,0,1,476.417,538.53Z" transform="translate(-379.035 -523.789)" fill="#072146"/>
      <path id="Trazado_35" data-name="Trazado 35" d="M504.248,540.786h15.518v4.136H504.248V565.6a20.941,20.941,0,0,0,.565,5.376,7.492,7.492,0,0,0,1.619,3.2,5.124,5.124,0,0,0,2.561,1.5,13.637,13.637,0,0,0,3.316.377,14.282,14.282,0,0,0,4.971-.715,21.494,21.494,0,0,0,2.938-1.316l1.206,4.062a17.755,17.755,0,0,1-3.692,1.541,18.291,18.291,0,0,1-5.725.864,17.025,17.025,0,0,1-6.064-.939,8.755,8.755,0,0,1-3.917-2.858,11.711,11.711,0,0,1-2.072-4.776,33.146,33.146,0,0,1-.6-6.768v-35.8l4.9-.9Z" transform="translate(-373.632 -525.294)" fill="#072146"/>
      <path id="Trazado_36" data-name="Trazado 36" d="M564.879,576.712q-2.186.6-5.876,1.354a46.252,46.252,0,0,1-9.038.752,18.357,18.357,0,0,1-7.308-1.279,11.849,11.849,0,0,1-4.744-3.61,14.594,14.594,0,0,1-2.6-5.641,31.352,31.352,0,0,1-.791-7.295V539.184h4.9v20.23a34.471,34.471,0,0,0,.6,6.993,11.345,11.345,0,0,0,1.959,4.626,7.643,7.643,0,0,0,3.5,2.557,15.237,15.237,0,0,0,5.235.79,41.928,41.928,0,0,0,6.026-.376,16.22,16.22,0,0,0,3.24-.677V539.184h4.9Z" transform="translate(-368.381 -523.692)" fill="#072146"/>
      <path id="Trazado_37" data-name="Trazado 37" d="M592.337,538.4a17.31,17.31,0,0,1,6.515,1.091,11.211,11.211,0,0,1,4.332,3.009,11.855,11.855,0,0,1,2.411,4.55,20.746,20.746,0,0,1,.753,5.715v24.517a22.135,22.135,0,0,1-2.185.49q-1.431.264-3.315.564t-4.181.488q-2.3.186-4.708.187a22.555,22.555,0,0,1-5.687-.676,12.6,12.6,0,0,1-4.52-2.143,10.125,10.125,0,0,1-3.013-3.76,12.959,12.959,0,0,1-1.092-5.6,11.348,11.348,0,0,1,1.206-5.414,10.237,10.237,0,0,1,3.389-3.723,15.209,15.209,0,0,1,5.2-2.143,29.856,29.856,0,0,1,6.553-.676q1.053,0,2.222.112t2.261.3q1.091.19,1.883.377a5.788,5.788,0,0,1,1.093.338v-2.408a25.509,25.509,0,0,0-.3-3.948,8.645,8.645,0,0,0-1.318-3.459,7.327,7.327,0,0,0-2.862-2.482,10.768,10.768,0,0,0-4.859-.939,25.2,25.2,0,0,0-6.4.6q-2.11.6-3.088.978l-.678-4.287a18.149,18.149,0,0,1,3.955-1.128A33.9,33.9,0,0,1,592.337,538.4Zm.452,36.25q2.862,0,5.01-.189a33.917,33.917,0,0,0,3.654-.488V560.284a15.127,15.127,0,0,0-2.636-.789,23.371,23.371,0,0,0-4.972-.414,28.236,28.236,0,0,0-3.766.263,10.889,10.889,0,0,0-3.616,1.127,7.49,7.49,0,0,0-2.712,2.369,6.805,6.805,0,0,0-1.055,3.986,8.519,8.519,0,0,0,.716,3.686,5.946,5.946,0,0,0,2.034,2.407,9,9,0,0,0,3.164,1.316A19.176,19.176,0,0,0,592.789,574.648Z" transform="translate(-361.943 -523.809)" fill="#072146"/>
      <g id="Grupo_25" data-name="Grupo 25" transform="translate(0.941 65.337)">
        <path id="Trazado_38" data-name="Trazado 38" d="M440.192,585.328a22.314,22.314,0,0,1,7.608,1.129,12.152,12.152,0,0,1,4.934,3.158,11.814,11.814,0,0,1,2.636,4.926,24.068,24.068,0,0,1,.791,6.356v23.84q-2.108.452-6.365,1.091a65.25,65.25,0,0,1-9.6.639,28.9,28.9,0,0,1-6.477-.677,13.644,13.644,0,0,1-5.01-2.18,10.278,10.278,0,0,1-3.239-3.912,13.527,13.527,0,0,1-1.168-5.941,11.451,11.451,0,0,1,1.318-5.715,10.793,10.793,0,0,1,3.578-3.8,15.477,15.477,0,0,1,5.235-2.107,29.572,29.572,0,0,1,6.215-.639,28.158,28.158,0,0,1,3.164.188,29.548,29.548,0,0,1,3.54.639v-1.5a11.779,11.779,0,0,0-.377-3.008,6.014,6.014,0,0,0-3.8-4.212,10.768,10.768,0,0,0-3.879-.6,34.432,34.432,0,0,0-5.8.452,25.534,25.534,0,0,0-4.294,1.053l-1.13-7.369a36.043,36.043,0,0,1,5.047-1.2A39.753,39.753,0,0,1,440.192,585.328Zm.754,33.918a33.959,33.959,0,0,0,6.4-.452V608.717a17.735,17.735,0,0,0-2.185-.452A20.384,20.384,0,0,0,442,608.04a21.052,21.052,0,0,0-3.051.225,9.517,9.517,0,0,0-2.787.827,5.058,5.058,0,0,0-2,1.692,4.725,4.725,0,0,0-.754,2.746q0,3.234,2.035,4.474A10.5,10.5,0,0,0,440.946,619.246Z" transform="translate(-385.777 -582.14)" fill="#072146"/>
        <path id="Trazado_39" data-name="Trazado 39" d="M492.544,621.633q0,9.4-4.784,13.763t-14.65,4.361a40.779,40.779,0,0,1-7.044-.6,39.583,39.583,0,0,1-6.214-1.579l1.657-7.747a28.263,28.263,0,0,0,5.31,1.579,32.426,32.426,0,0,0,6.441.6q5.5,0,7.835-2.256t2.335-6.693v-1.5a23.582,23.582,0,0,1-3.578,1.354,17.454,17.454,0,0,1-5.086.678,19.036,19.036,0,0,1-6.892-1.2,14.419,14.419,0,0,1-5.348-3.534,16.135,16.135,0,0,1-3.465-5.828,24.106,24.106,0,0,1-1.244-8.085,22.85,22.85,0,0,1,1.318-7.9,16.9,16.9,0,0,1,3.842-6.167,17.578,17.578,0,0,1,6.138-3.986,22.223,22.223,0,0,1,8.212-1.43,50.423,50.423,0,0,1,8.437.678q3.991.676,6.78,1.429Zm-25.385-16.7q0,5.792,2.524,8.461a8.561,8.561,0,0,0,6.515,2.67,13.633,13.633,0,0,0,4.105-.6,11.716,11.716,0,0,0,3.126-1.429v-20.38q-.981-.226-2.411-.414a28.841,28.841,0,0,0-3.616-.188,9.2,9.2,0,0,0-7.607,3.272A13.3,13.3,0,0,0,467.158,604.937Z" transform="translate(-380.773 -582.121)" fill="#072146"/>
        <path id="Trazado_40" data-name="Trazado 40" d="M532.034,605.934a25.34,25.34,0,0,1-1.356,8.5,18.769,18.769,0,0,1-3.842,6.543,17.259,17.259,0,0,1-5.988,4.212,19.376,19.376,0,0,1-7.721,1.5,19.1,19.1,0,0,1-7.683-1.5,17.368,17.368,0,0,1-5.952-4.212,19.274,19.274,0,0,1-3.879-6.543,24.713,24.713,0,0,1-1.393-8.5,24.394,24.394,0,0,1,1.393-8.46,19,19,0,0,1,3.918-6.5,17.281,17.281,0,0,1,5.988-4.174,19.311,19.311,0,0,1,7.608-1.466,19.59,19.59,0,0,1,7.645,1.466,16.817,16.817,0,0,1,5.989,4.174,19.335,19.335,0,0,1,3.879,6.5A24.393,24.393,0,0,1,532.034,605.934Zm-9.341,0q0-5.865-2.521-9.286a8.959,8.959,0,0,0-14.087,0q-2.526,3.422-2.524,9.286,0,5.942,2.524,9.4a8.9,8.9,0,0,0,14.087,0Q522.693,611.877,522.692,605.934Z" transform="translate(-375.339 -582.14)" fill="#072146"/>
        <path id="Trazado_41" data-name="Trazado 41" d="M571.9,605.934a25.34,25.34,0,0,1-1.356,8.5,18.787,18.787,0,0,1-3.842,6.543,17.27,17.27,0,0,1-5.988,4.212,19.385,19.385,0,0,1-7.722,1.5,19.1,19.1,0,0,1-7.683-1.5,17.364,17.364,0,0,1-5.951-4.212,19.259,19.259,0,0,1-3.879-6.543,24.715,24.715,0,0,1-1.394-8.5,24.4,24.4,0,0,1,1.394-8.46,19.014,19.014,0,0,1,3.917-6.5,17.281,17.281,0,0,1,5.988-4.174,19.318,19.318,0,0,1,7.608-1.466,19.6,19.6,0,0,1,7.646,1.466,16.837,16.837,0,0,1,5.989,4.174,19.354,19.354,0,0,1,3.879,6.5A24.421,24.421,0,0,1,571.9,605.934Zm-9.341,0q0-5.865-2.523-9.286a8.957,8.957,0,0,0-14.086,0q-2.526,3.422-2.524,9.286,0,5.942,2.524,9.4a8.9,8.9,0,0,0,14.086,0Q562.555,611.877,562.556,605.934Z" transform="translate(-369.388 -582.14)" fill="#072146"/>
        <path id="Trazado_42" data-name="Trazado 42" d="M573.84,587.565a61.308,61.308,0,0,1,6.854-1.429,59.15,59.15,0,0,1,9.341-.678,21.523,21.523,0,0,1,8.06,1.317,12.583,12.583,0,0,1,5.159,3.685,14.046,14.046,0,0,1,2.712,5.717,31.857,31.857,0,0,1,.792,7.332v22.11h-9.115V604.937a30.086,30.086,0,0,0-.414-5.377,9.552,9.552,0,0,0-1.357-3.61,5.42,5.42,0,0,0-2.56-2.031,10.825,10.825,0,0,0-3.955-.639,30.387,30.387,0,0,0-3.616.227q-1.883.226-2.787.376v31.736H573.84Z" transform="translate(-363.452 -582.121)" fill="#072146"/>
        <path id="Trazado_43" data-name="Trazado 43" d="M400.272,582.554v35.3h23.5v8.2H390.781v-43.5Z" transform="translate(-390.781 -582.554)" fill="#072146"/>
      </g>
      <path id="Trazado_44" data-name="Trazado 44" d="M406.722,572.8q1.586-3.232,3.249-7.407t3.211-8.65q1.55-4.473,2.871-9.024t2.23-8.536h4.9q-1.364,5.339-3.031,10.528t-3.525,10.154q-1.858,4.963-3.867,9.551t-3.9,8.649H404.29q-1.97-4.062-3.942-8.649t-3.828-9.551q-1.857-4.963-3.526-10.154t-3.032-10.528h5.2q.908,3.987,2.23,8.536t2.872,9.024q1.548,4.475,3.212,8.65T406.722,572.8Z" transform="translate(-389.962 -523.692)" fill="#072146"/>
      <path id="Trazado_45" data-name="Trazado 45" d="M442.535,529.464a3.633,3.633,0,0,1-1.054,2.745,3.736,3.736,0,0,1-5.122,0,4.1,4.1,0,0,1,0-5.49,3.739,3.739,0,0,1,5.122,0A3.635,3.635,0,0,1,442.535,529.464Zm-1.129,50.614h-4.9V541.2h4.9Z" transform="translate(-383.193 -525.704)" fill="#072146"/>
      <path id="Trazado_46" data-name="Trazado 46" d="M476.417,538.53a26.428,26.428,0,0,1,4.558.376,14.015,14.015,0,0,1,2.976.752l-.979,4.212a11,11,0,0,0-2.448-.64,28.035,28.035,0,0,0-4.859-.339,23.045,23.045,0,0,0-5.086.452,14.191,14.191,0,0,0-2.522.752v34.07h-4.9V541.086a36.281,36.281,0,0,1,5.2-1.692A32.4,32.4,0,0,1,476.417,538.53Z" transform="translate(-379.035 -523.789)" fill="#072146"/>
      <path id="Trazado_47" data-name="Trazado 47" d="M504.248,540.786h15.518v4.136H504.248V565.6a20.941,20.941,0,0,0,.565,5.376,7.492,7.492,0,0,0,1.619,3.2,5.124,5.124,0,0,0,2.561,1.5,13.637,13.637,0,0,0,3.316.377,14.282,14.282,0,0,0,4.971-.715,21.494,21.494,0,0,0,2.938-1.316l1.206,4.062a17.755,17.755,0,0,1-3.692,1.541,18.291,18.291,0,0,1-5.725.864,17.025,17.025,0,0,1-6.064-.939,8.755,8.755,0,0,1-3.917-2.858,11.711,11.711,0,0,1-2.072-4.776,33.146,33.146,0,0,1-.6-6.768v-35.8l4.9-.9Z" transform="translate(-373.632 -525.294)" fill="#072146"/>
      <path id="Trazado_48" data-name="Trazado 48" d="M564.879,576.712q-2.186.6-5.876,1.354a46.252,46.252,0,0,1-9.038.752,18.357,18.357,0,0,1-7.308-1.279,11.849,11.849,0,0,1-4.744-3.61,14.594,14.594,0,0,1-2.6-5.641,31.352,31.352,0,0,1-.791-7.295V539.184h4.9v20.23a34.471,34.471,0,0,0,.6,6.993,11.345,11.345,0,0,0,1.959,4.626,7.643,7.643,0,0,0,3.5,2.557,15.237,15.237,0,0,0,5.235.79,41.928,41.928,0,0,0,6.026-.376,16.22,16.22,0,0,0,3.24-.677V539.184h4.9Z" transform="translate(-368.381 -523.692)" fill="#072146"/>
      <path id="Trazado_49" data-name="Trazado 49" d="M592.337,538.4a17.31,17.31,0,0,1,6.515,1.091,11.211,11.211,0,0,1,4.332,3.009,11.855,11.855,0,0,1,2.411,4.55,20.746,20.746,0,0,1,.753,5.715v24.517a22.135,22.135,0,0,1-2.185.49q-1.431.264-3.315.564t-4.181.488q-2.3.186-4.708.187a22.555,22.555,0,0,1-5.687-.676,12.6,12.6,0,0,1-4.52-2.143,10.125,10.125,0,0,1-3.013-3.76,12.959,12.959,0,0,1-1.092-5.6,11.348,11.348,0,0,1,1.206-5.414,10.237,10.237,0,0,1,3.389-3.723,15.209,15.209,0,0,1,5.2-2.143,29.856,29.856,0,0,1,6.553-.676q1.053,0,2.222.112t2.261.3q1.091.19,1.883.377a5.788,5.788,0,0,1,1.093.338v-2.408a25.509,25.509,0,0,0-.3-3.948,8.645,8.645,0,0,0-1.318-3.459,7.327,7.327,0,0,0-2.862-2.482,10.768,10.768,0,0,0-4.859-.939,25.2,25.2,0,0,0-6.4.6q-2.11.6-3.088.978l-.678-4.287a18.149,18.149,0,0,1,3.955-1.128A33.9,33.9,0,0,1,592.337,538.4Zm.452,36.25q2.862,0,5.01-.189a33.917,33.917,0,0,0,3.654-.488V560.284a15.127,15.127,0,0,0-2.636-.789,23.371,23.371,0,0,0-4.972-.414,28.236,28.236,0,0,0-3.766.263,10.889,10.889,0,0,0-3.616,1.127,7.49,7.49,0,0,0-2.712,2.369,6.805,6.805,0,0,0-1.055,3.986,8.519,8.519,0,0,0,.716,3.686,5.946,5.946,0,0,0,2.034,2.407,9,9,0,0,0,3.164,1.316A19.176,19.176,0,0,0,592.789,574.648Z" transform="translate(-361.943 -523.809)" fill="#072146"/>
      <g id="Grupo_26" data-name="Grupo 26" transform="translate(0.941 65.337)">
        <path id="Trazado_50" data-name="Trazado 50" d="M440.192,585.328a22.314,22.314,0,0,1,7.608,1.129,12.152,12.152,0,0,1,4.934,3.158,11.814,11.814,0,0,1,2.636,4.926,24.068,24.068,0,0,1,.791,6.356v23.84q-2.108.452-6.365,1.091a65.25,65.25,0,0,1-9.6.639,28.9,28.9,0,0,1-6.477-.677,13.644,13.644,0,0,1-5.01-2.18,10.278,10.278,0,0,1-3.239-3.912,13.527,13.527,0,0,1-1.168-5.941,11.451,11.451,0,0,1,1.318-5.715,10.793,10.793,0,0,1,3.578-3.8,15.477,15.477,0,0,1,5.235-2.107,29.572,29.572,0,0,1,6.215-.639,28.158,28.158,0,0,1,3.164.188,29.548,29.548,0,0,1,3.54.639v-1.5a11.779,11.779,0,0,0-.377-3.008,6.014,6.014,0,0,0-3.8-4.212,10.768,10.768,0,0,0-3.879-.6,34.432,34.432,0,0,0-5.8.452,25.534,25.534,0,0,0-4.294,1.053l-1.13-7.369a36.043,36.043,0,0,1,5.047-1.2A39.753,39.753,0,0,1,440.192,585.328Zm.754,33.918a33.959,33.959,0,0,0,6.4-.452V608.717a17.735,17.735,0,0,0-2.185-.452A20.384,20.384,0,0,0,442,608.04a21.052,21.052,0,0,0-3.051.225,9.517,9.517,0,0,0-2.787.827,5.058,5.058,0,0,0-2,1.692,4.725,4.725,0,0,0-.754,2.746q0,3.234,2.035,4.474A10.5,10.5,0,0,0,440.946,619.246Z" transform="translate(-385.777 -582.14)" fill="#072146"/>
        <path id="Trazado_51" data-name="Trazado 51" d="M492.544,621.633q0,9.4-4.784,13.763t-14.65,4.361a40.779,40.779,0,0,1-7.044-.6,39.583,39.583,0,0,1-6.214-1.579l1.657-7.747a28.263,28.263,0,0,0,5.31,1.579,32.426,32.426,0,0,0,6.441.6q5.5,0,7.835-2.256t2.335-6.693v-1.5a23.582,23.582,0,0,1-3.578,1.354,17.454,17.454,0,0,1-5.086.678,19.036,19.036,0,0,1-6.892-1.2,14.419,14.419,0,0,1-5.348-3.534,16.135,16.135,0,0,1-3.465-5.828,24.106,24.106,0,0,1-1.244-8.085,22.85,22.85,0,0,1,1.318-7.9,16.9,16.9,0,0,1,3.842-6.167,17.578,17.578,0,0,1,6.138-3.986,22.223,22.223,0,0,1,8.212-1.43,50.423,50.423,0,0,1,8.437.678q3.991.676,6.78,1.429Zm-25.385-16.7q0,5.792,2.524,8.461a8.561,8.561,0,0,0,6.515,2.67,13.633,13.633,0,0,0,4.105-.6,11.716,11.716,0,0,0,3.126-1.429v-20.38q-.981-.226-2.411-.414a28.841,28.841,0,0,0-3.616-.188,9.2,9.2,0,0,0-7.607,3.272A13.3,13.3,0,0,0,467.158,604.937Z" transform="translate(-380.773 -582.121)" fill="#072146"/>
        <path id="Trazado_52" data-name="Trazado 52" d="M532.034,605.934a25.34,25.34,0,0,1-1.356,8.5,18.769,18.769,0,0,1-3.842,6.543,17.259,17.259,0,0,1-5.988,4.212,19.376,19.376,0,0,1-7.721,1.5,19.1,19.1,0,0,1-7.683-1.5,17.368,17.368,0,0,1-5.952-4.212,19.274,19.274,0,0,1-3.879-6.543,24.713,24.713,0,0,1-1.393-8.5,24.394,24.394,0,0,1,1.393-8.46,19,19,0,0,1,3.918-6.5,17.281,17.281,0,0,1,5.988-4.174,19.311,19.311,0,0,1,7.608-1.466,19.59,19.59,0,0,1,7.645,1.466,16.817,16.817,0,0,1,5.989,4.174,19.335,19.335,0,0,1,3.879,6.5A24.393,24.393,0,0,1,532.034,605.934Zm-9.341,0q0-5.865-2.521-9.286a8.959,8.959,0,0,0-14.087,0q-2.526,3.422-2.524,9.286,0,5.942,2.524,9.4a8.9,8.9,0,0,0,14.087,0Q522.693,611.877,522.692,605.934Z" transform="translate(-375.339 -582.14)" fill="#072146"/>
        <path id="Trazado_53" data-name="Trazado 53" d="M571.9,605.934a25.34,25.34,0,0,1-1.356,8.5,18.787,18.787,0,0,1-3.842,6.543,17.27,17.27,0,0,1-5.988,4.212,19.385,19.385,0,0,1-7.722,1.5,19.1,19.1,0,0,1-7.683-1.5,17.364,17.364,0,0,1-5.951-4.212,19.259,19.259,0,0,1-3.879-6.543,24.715,24.715,0,0,1-1.394-8.5,24.4,24.4,0,0,1,1.394-8.46,19.014,19.014,0,0,1,3.917-6.5,17.281,17.281,0,0,1,5.988-4.174,19.318,19.318,0,0,1,7.608-1.466,19.6,19.6,0,0,1,7.646,1.466,16.837,16.837,0,0,1,5.989,4.174,19.354,19.354,0,0,1,3.879,6.5A24.421,24.421,0,0,1,571.9,605.934Zm-9.341,0q0-5.865-2.523-9.286a8.957,8.957,0,0,0-14.086,0q-2.526,3.422-2.524,9.286,0,5.942,2.524,9.4a8.9,8.9,0,0,0,14.086,0Q562.555,611.877,562.556,605.934Z" transform="translate(-369.388 -582.14)" fill="#072146"/>
        <path id="Trazado_54" data-name="Trazado 54" d="M573.84,587.565a61.308,61.308,0,0,1,6.854-1.429,59.15,59.15,0,0,1,9.341-.678,21.523,21.523,0,0,1,8.06,1.317,12.583,12.583,0,0,1,5.159,3.685,14.046,14.046,0,0,1,2.712,5.717,31.857,31.857,0,0,1,.792,7.332v22.11h-9.115V604.937a30.086,30.086,0,0,0-.414-5.377,9.552,9.552,0,0,0-1.357-3.61,5.42,5.42,0,0,0-2.56-2.031,10.825,10.825,0,0,0-3.955-.639,30.387,30.387,0,0,0-3.616.227q-1.883.226-2.787.376v31.736H573.84Z" transform="translate(-363.452 -582.121)" fill="#072146"/>
        <path id="Trazado_55" data-name="Trazado 55" d="M400.272,582.554v35.3h23.5v8.2H390.781v-43.5Z" transform="translate(-390.781 -582.554)" fill="#072146"/>
      </g>
    </g>
    <g id="Grupo_28" data-name="Grupo 28" transform="translate(0 1.6)">
      <path id="Trazado_56" data-name="Trazado 56" d="M345.675,566.866l-7.034,30.468H308.324l7.034-30.468Z" transform="translate(-266.067 -521.159)" fill="#b8283d"/>
      <path id="Trazado_57" data-name="Trazado 57" d="M341.153,643.041l7.035-30.468,3.517-15.24,7.034-30.468h-15.63l-7.034,30.468-3.517,15.24-7.035,30.468Z" transform="translate(-263.5 -521.159)" fill="#676666" opacity="0.4"/>
      <path id="Trazado_58" data-name="Trazado 58" d="M312.3,527.1l-7.038,30.479L301.757,572.8l-7.034,30.468h15.63l7.034-30.468,3.517-15.228,7.038-30.479Z" transform="translate(-268.098 -527.096)" fill="#333541" opacity="0.5"/>
      <path id="Trazado_59" data-name="Trazado 59" d="M377.833,593.376H308.78l-3.517,15.24h69.052Z" transform="translate(-266.524 -517.201)" fill="#333541" opacity="0.5"/>
      <path id="Trazado_60" data-name="Trazado 60" d="M383.075,557.574h-23.1l7.035-30.468h-15.63l-7.035,30.468L340.824,572.8h38.735Z" transform="translate(-261.216 -527.094)" fill="#009874"/>
      <path id="Trazado_61" data-name="Trazado 61" d="M271.556,608.616h23.109l-7.034,30.468h15.63l7.035-30.468,3.517-15.24H275.075Z" transform="translate(-271.556 -517.201)" fill="#072146"/>
      <path id="Trazado_62" data-name="Trazado 62" d="M284.253,553.616l-3.516,15.228h69.056l3.517-15.228Z" transform="translate(-270.186 -523.137)" fill="#676666" opacity="0.4"/>
    </g>
  </g>
</svg>
