<svg xmlns="http://www.w3.org/2000/svg" viewBox="0 0 76.46 81.26"><defs><style>.cls-1{isolation:isolate;}.cls-2{fill:#b8283d;}.cls-3,.cls-7{fill:#676666;opacity:0.4;}.cls-3,.cls-4{mix-blend-mode:multiply;}.cls-4{fill:#333541;opacity:0.5;}.cls-5{fill:#009874;}.cls-6{fill:#072146;}</style></defs><title>Recurso 15</title><g class="cls-1"><g id="Capa_2" data-name="Capa 2"><g id="Capa_1-2" data-name="Capa 1"><polygon class="cls-2" points="44.05 14.3 41.85 23.83 32.37 23.83 34.57 14.3 44.05 14.3"/><polygon class="cls-3" points="43.44 38.13 45.64 28.6 46.74 23.83 48.94 14.3 44.05 14.3 41.85 23.83 40.75 28.6 38.55 38.13 43.44 38.13"/><polygon class="cls-4" points="32.97 0 30.77 9.54 29.68 14.3 27.48 23.83 32.37 23.83 34.57 14.3 35.67 9.54 37.87 0 32.97 0"/><polygon class="cls-4" points="53.97 23.83 32.37 23.83 31.27 28.6 52.87 28.6 53.97 23.83"/><polygon class="cls-5" points="57.27 9.54 50.04 9.54 52.24 0 47.35 0 45.15 9.54 44.05 14.3 56.17 14.3 57.27 9.54"/><polygon class="cls-6" points="19.14 28.6 26.38 28.6 24.17 38.13 29.06 38.13 31.27 28.6 32.37 23.83 20.25 23.83 19.14 28.6"/><polygon class="cls-7" points="23.55 9.54 22.45 14.3 44.05 14.3 45.15 9.54 23.55 9.54"/><path class="cls-6" d="M5.24,58.15q.5-1,1-2.31c.35-.88.68-1.78,1-2.71s.63-1.88.9-2.82.51-1.84.7-2.67h1.53c-.28,1.11-.6,2.21-1,3.29s-.71,2.14-1.1,3.18-.79,2-1.21,3S6.31,59,5.91,59.8H4.48c-.41-.85-.82-1.75-1.23-2.71s-.81-2-1.2-3S1.3,52,1,50.93.28,48.75,0,47.64H1.63q.29,1.24.69,2.67c.28.94.58,1.89.9,2.82s.66,1.83,1,2.71S4.91,57.48,5.24,58.15Z"/><path class="cls-6" d="M18.57,44a1.12,1.12,0,0,1-.33.86,1.17,1.17,0,0,1-1.61,0,1.27,1.27,0,0,1,0-1.71,1.17,1.17,0,0,1,1.61,0A1.11,1.11,0,0,1,18.57,44ZM18.21,59.8H16.68V47.64h1.53Z"/><path class="cls-6" d="M30.47,47.4a8.08,8.08,0,0,1,1.42.12,4.36,4.36,0,0,1,.93.23l-.3,1.32a3.58,3.58,0,0,0-.77-.2,8.7,8.7,0,0,0-1.52-.11,6.79,6.79,0,0,0-1.59.15,4.56,4.56,0,0,0-.79.23V59.8H26.32V48.2A11.17,11.17,0,0,1,28,47.67,10.12,10.12,0,0,1,30.47,47.4Z"/><path class="cls-6" d="M40.86,47.64h4.86v1.29H40.86V55.4A6.42,6.42,0,0,0,41,57.08a2.35,2.35,0,0,0,.51,1,1.56,1.56,0,0,0,.8.47,4.18,4.18,0,0,0,1,.12,4.43,4.43,0,0,0,1.55-.22,6.42,6.42,0,0,0,.92-.42l.38,1.28a6.33,6.33,0,0,1-3,.75,5.26,5.26,0,0,1-1.9-.3,2.7,2.7,0,0,1-1.22-.89,3.69,3.69,0,0,1-.65-1.49,10.17,10.17,0,0,1-.19-2.12V44.06l1.53-.28Z"/><path class="cls-6" d="M61.48,59.38c-.46.12-1.07.26-1.84.42a14.3,14.3,0,0,1-2.83.23,5.73,5.73,0,0,1-2.29-.4A3.71,3.71,0,0,1,53,58.51a4.51,4.51,0,0,1-.81-1.77A9.54,9.54,0,0,1,52,54.46V47.64h1.53V54a10.42,10.42,0,0,0,.19,2.19,3.51,3.51,0,0,0,.61,1.45,2.4,2.4,0,0,0,1.1.8,4.82,4.82,0,0,0,1.63.25,12.86,12.86,0,0,0,1.89-.12,5.48,5.48,0,0,0,1-.21V47.64h1.54Z"/><path class="cls-6" d="M72.08,47.35a5.58,5.58,0,0,1,2,.34,3.46,3.46,0,0,1,1.35,1,3.67,3.67,0,0,1,.76,1.42,6.74,6.74,0,0,1,.23,1.79v7.67c-.15,0-.38.1-.68.15l-1,.18c-.39.06-.83.11-1.31.15s-1,.06-1.47.06a7.12,7.12,0,0,1-1.78-.21,4,4,0,0,1-1.41-.67A3.12,3.12,0,0,1,67.83,58a4,4,0,0,1-.35-1.75,3.59,3.59,0,0,1,.38-1.7,3.19,3.19,0,0,1,1.06-1.16,4.7,4.7,0,0,1,1.63-.67,9.42,9.42,0,0,1,2-.21l.69,0c.25,0,.48.06.71.1a5.74,5.74,0,0,1,.59.11,1.92,1.92,0,0,1,.34.11v-.75a8.32,8.32,0,0,0-.09-1.24,2.68,2.68,0,0,0-.42-1.08,2.34,2.34,0,0,0-.89-.78A3.46,3.46,0,0,0,72,48.72a7.6,7.6,0,0,0-2,.19c-.44.12-.77.22-1,.3l-.21-1.34a5.92,5.92,0,0,1,1.24-.35A10.39,10.39,0,0,1,72.08,47.35Zm.14,11.34c.6,0,1.12,0,1.57-.06a9.12,9.12,0,0,0,1.14-.15V54.2a4.89,4.89,0,0,0-.82-.25,7.82,7.82,0,0,0-1.56-.13,8.12,8.12,0,0,0-1.18.09,3.31,3.31,0,0,0-1.13.35,2.43,2.43,0,0,0-.85.74,2.13,2.13,0,0,0-.33,1.25,2.65,2.65,0,0,0,.23,1.15,1.92,1.92,0,0,0,.63.75,2.76,2.76,0,0,0,1,.41A5.81,5.81,0,0,0,72.22,58.69Z"/><path class="cls-6" d="M17.32,64.23a6.91,6.91,0,0,1,2.38.35,3.77,3.77,0,0,1,1.54,1,3.71,3.71,0,0,1,.83,1.54,7.75,7.75,0,0,1,.24,2v7.46c-.44.09-1.1.2-2,.34a20.74,20.74,0,0,1-3,.2,9.11,9.11,0,0,1-2-.21,4.41,4.41,0,0,1-1.57-.69,3.18,3.18,0,0,1-1-1.22,4.28,4.28,0,0,1-.36-1.86,3.54,3.54,0,0,1,.41-1.79,3.44,3.44,0,0,1,1.12-1.19,4.9,4.9,0,0,1,1.64-.65,8.74,8.74,0,0,1,1.94-.2c.31,0,.64,0,1,0a10.5,10.5,0,0,1,1.11.2v-.47a3.61,3.61,0,0,0-.12-.94,2.06,2.06,0,0,0-.41-.79,2,2,0,0,0-.78-.52A3.27,3.27,0,0,0,17,66.63a10.27,10.27,0,0,0-1.82.14,7.07,7.07,0,0,0-1.34.33l-.36-2.31a11.8,11.8,0,0,1,1.58-.37A12,12,0,0,1,17.32,64.23Zm.23,10.61a11.13,11.13,0,0,0,2-.14V71.54c-.16,0-.39-.09-.69-.14a7.19,7.19,0,0,0-1-.07,7.73,7.73,0,0,0-.95.07,3.27,3.27,0,0,0-.87.26,1.63,1.63,0,0,0-.63.53,1.55,1.55,0,0,0-.23.86,1.52,1.52,0,0,0,.63,1.4A3.29,3.29,0,0,0,17.55,74.84Z"/><path class="cls-6" d="M35.26,75.59a5.6,5.6,0,0,1-1.49,4.31,6.64,6.64,0,0,1-4.59,1.36A13.2,13.2,0,0,1,25,80.58l.52-2.42a9.61,9.61,0,0,0,1.66.49,9.9,9.9,0,0,0,2,.19,3.46,3.46,0,0,0,2.45-.71A2.77,2.77,0,0,0,32.41,76v-.47a7.47,7.47,0,0,1-1.12.42,5.47,5.47,0,0,1-1.59.21,6,6,0,0,1-2.16-.37,4.45,4.45,0,0,1-1.67-1.11,5.12,5.12,0,0,1-1.08-1.82,7.55,7.55,0,0,1-.39-2.53,7.23,7.23,0,0,1,.41-2.47A5.35,5.35,0,0,1,26,66a5.51,5.51,0,0,1,1.92-1.25,6.93,6.93,0,0,1,2.57-.45,14.85,14.85,0,0,1,2.64.22c.83.14,1.54.29,2.12.44Zm-7.94-5.22A3.7,3.7,0,0,0,28.11,73a2.68,2.68,0,0,0,2,.84,4.13,4.13,0,0,0,1.28-.19,3.31,3.31,0,0,0,1-.45V66.84a7.61,7.61,0,0,0-.75-.13,8.84,8.84,0,0,0-1.13-.06,2.87,2.87,0,0,0-2.38,1A4.13,4.13,0,0,0,27.32,70.37Z"/><path class="cls-6" d="M49.32,70.67a7.73,7.73,0,0,1-.43,2.66,5.87,5.87,0,0,1-1.2,2,5.57,5.57,0,0,1-1.87,1.32,6.14,6.14,0,0,1-2.42.47A6,6,0,0,1,41,76.7a5.63,5.63,0,0,1-1.86-1.32,6.07,6.07,0,0,1-1.22-2,7.73,7.73,0,0,1-.43-2.66A7.62,7.62,0,0,1,37.92,68a5.89,5.89,0,0,1,1.23-2A5.34,5.34,0,0,1,41,64.69a6.41,6.41,0,0,1,4.77,0A5.29,5.29,0,0,1,47.67,66a6,6,0,0,1,1.21,2A7.61,7.61,0,0,1,49.32,70.67Zm-2.93,0a4.82,4.82,0,0,0-.78-2.9A2.59,2.59,0,0,0,43.4,66.7a2.56,2.56,0,0,0-2.2,1.07,4.75,4.75,0,0,0-.79,2.9,4.86,4.86,0,0,0,.79,2.94,2.55,2.55,0,0,0,2.2,1.09,2.58,2.58,0,0,0,2.21-1.09A4.93,4.93,0,0,0,46.39,70.67Z"/><path class="cls-6" d="M63.65,70.67a8,8,0,0,1-.42,2.66,6.05,6.05,0,0,1-1.21,2,5.47,5.47,0,0,1-1.87,1.32,6.13,6.13,0,0,1-2.41.47,6,6,0,0,1-2.41-.47,5.63,5.63,0,0,1-1.86-1.32,6.05,6.05,0,0,1-1.21-2,7.5,7.5,0,0,1-.44-2.66A7.39,7.39,0,0,1,52.26,68a5.87,5.87,0,0,1,1.22-2,5.43,5.43,0,0,1,1.87-1.3,6.44,6.44,0,0,1,4.78,0A5.25,5.25,0,0,1,62,66a6,6,0,0,1,1.21,2A7.61,7.61,0,0,1,63.65,70.67Zm-2.92,0a4.82,4.82,0,0,0-.79-2.9,2.81,2.81,0,0,0-4.41,0,4.82,4.82,0,0,0-.79,2.9,4.93,4.93,0,0,0,.79,2.94,2.78,2.78,0,0,0,4.41,0A4.93,4.93,0,0,0,60.73,70.67Z"/><path class="cls-6" d="M66.12,64.93a20.08,20.08,0,0,1,2.14-.44,17.44,17.44,0,0,1,2.92-.22,6.57,6.57,0,0,1,2.52.42,3.82,3.82,0,0,1,1.62,1.15,4.45,4.45,0,0,1,.85,1.79,10.19,10.19,0,0,1,.24,2.29v6.92H73.56V70.37a9,9,0,0,0-.13-1.68A2.93,2.93,0,0,0,73,67.56a1.69,1.69,0,0,0-.8-.64,3.46,3.46,0,0,0-1.24-.2,8.9,8.9,0,0,0-1.13.07l-.87.12v9.93H66.12Z"/><polygon class="cls-6" points="3.26 63.23 3.26 74.27 10.62 74.27 10.62 76.84 0.29 76.84 0.29 63.23 3.26 63.23"/><path class="cls-6" d="M5.24,58.15q.5-1,1-2.31c.35-.88.68-1.78,1-2.71s.63-1.88.9-2.82.51-1.84.7-2.67h1.53c-.28,1.11-.6,2.21-1,3.29s-.71,2.14-1.1,3.18-.79,2-1.21,3S6.31,59,5.91,59.8H4.48c-.41-.85-.82-1.75-1.23-2.71s-.81-2-1.2-3S1.3,52,1,50.93.28,48.75,0,47.64H1.63q.29,1.24.69,2.67c.28.94.58,1.89.9,2.82s.66,1.83,1,2.71S4.91,57.48,5.24,58.15Z"/><path class="cls-6" d="M18.57,44a1.12,1.12,0,0,1-.33.86,1.17,1.17,0,0,1-1.61,0,1.27,1.27,0,0,1,0-1.71,1.17,1.17,0,0,1,1.61,0A1.11,1.11,0,0,1,18.57,44ZM18.21,59.8H16.68V47.64h1.53Z"/><path class="cls-6" d="M30.47,47.4a8.08,8.08,0,0,1,1.42.12,4.36,4.36,0,0,1,.93.23l-.3,1.32a3.58,3.58,0,0,0-.77-.2,8.7,8.7,0,0,0-1.52-.11,6.79,6.79,0,0,0-1.59.15,4.56,4.56,0,0,0-.79.23V59.8H26.32V48.2A11.17,11.17,0,0,1,28,47.67,10.12,10.12,0,0,1,30.47,47.4Z"/><path class="cls-6" d="M40.86,47.64h4.86v1.29H40.86V55.4A6.42,6.42,0,0,0,41,57.08a2.35,2.35,0,0,0,.51,1,1.56,1.56,0,0,0,.8.47,4.18,4.18,0,0,0,1,.12,4.43,4.43,0,0,0,1.55-.22,6.42,6.42,0,0,0,.92-.42l.38,1.28a6.33,6.33,0,0,1-3,.75,5.26,5.26,0,0,1-1.9-.3,2.7,2.7,0,0,1-1.22-.89,3.69,3.69,0,0,1-.65-1.49,10.17,10.17,0,0,1-.19-2.12V44.06l1.53-.28Z"/><path class="cls-6" d="M61.48,59.38c-.46.12-1.07.26-1.84.42a14.3,14.3,0,0,1-2.83.23,5.73,5.73,0,0,1-2.29-.4A3.71,3.71,0,0,1,53,58.51a4.51,4.51,0,0,1-.81-1.77A9.54,9.54,0,0,1,52,54.46V47.64h1.53V54a10.42,10.42,0,0,0,.19,2.19,3.51,3.51,0,0,0,.61,1.45,2.4,2.4,0,0,0,1.1.8,4.82,4.82,0,0,0,1.63.25,12.86,12.86,0,0,0,1.89-.12,5.48,5.48,0,0,0,1-.21V47.64h1.54Z"/><path class="cls-6" d="M72.08,47.35a5.58,5.58,0,0,1,2,.34,3.46,3.46,0,0,1,1.35,1,3.67,3.67,0,0,1,.76,1.42,6.74,6.74,0,0,1,.23,1.79v7.67c-.15,0-.38.1-.68.15l-1,.18c-.39.06-.83.11-1.31.15s-1,.06-1.47.06a7.12,7.12,0,0,1-1.78-.21,4,4,0,0,1-1.41-.67A3.12,3.12,0,0,1,67.83,58a4,4,0,0,1-.35-1.75,3.59,3.59,0,0,1,.38-1.7,3.19,3.19,0,0,1,1.06-1.16,4.7,4.7,0,0,1,1.63-.67,9.42,9.42,0,0,1,2-.21l.69,0c.25,0,.48.06.71.1a5.74,5.74,0,0,1,.59.11,1.92,1.92,0,0,1,.34.11v-.75a8.32,8.32,0,0,0-.09-1.24,2.68,2.68,0,0,0-.42-1.08,2.34,2.34,0,0,0-.89-.78A3.46,3.46,0,0,0,72,48.72a7.6,7.6,0,0,0-2,.19c-.44.12-.77.22-1,.3l-.21-1.34a5.92,5.92,0,0,1,1.24-.35A10.39,10.39,0,0,1,72.08,47.35Zm.14,11.34c.6,0,1.12,0,1.57-.06a9.12,9.12,0,0,0,1.14-.15V54.2a4.89,4.89,0,0,0-.82-.25,7.82,7.82,0,0,0-1.56-.13,8.12,8.12,0,0,0-1.18.09,3.31,3.31,0,0,0-1.13.35,2.43,2.43,0,0,0-.85.74,2.13,2.13,0,0,0-.33,1.25,2.65,2.65,0,0,0,.23,1.15,1.92,1.92,0,0,0,.63.75,2.76,2.76,0,0,0,1,.41A5.81,5.81,0,0,0,72.22,58.69Z"/><path class="cls-6" d="M17.32,64.23a6.91,6.91,0,0,1,2.38.35,3.77,3.77,0,0,1,1.54,1,3.71,3.71,0,0,1,.83,1.54,7.75,7.75,0,0,1,.24,2v7.46c-.44.09-1.1.2-2,.34a20.74,20.74,0,0,1-3,.2,9.11,9.11,0,0,1-2-.21,4.41,4.41,0,0,1-1.57-.69,3.18,3.18,0,0,1-1-1.22,4.28,4.28,0,0,1-.36-1.86,3.54,3.54,0,0,1,.41-1.79,3.44,3.44,0,0,1,1.12-1.19,4.9,4.9,0,0,1,1.64-.65,8.74,8.74,0,0,1,1.94-.2c.31,0,.64,0,1,0a10.5,10.5,0,0,1,1.11.2v-.47a3.61,3.61,0,0,0-.12-.94,2.06,2.06,0,0,0-.41-.79,2,2,0,0,0-.78-.52A3.27,3.27,0,0,0,17,66.63a10.27,10.27,0,0,0-1.82.14,7.07,7.07,0,0,0-1.34.33l-.36-2.31a11.8,11.8,0,0,1,1.58-.37A12,12,0,0,1,17.32,64.23Zm.23,10.61a11.13,11.13,0,0,0,2-.14V71.54c-.16,0-.39-.09-.69-.14a7.19,7.19,0,0,0-1-.07,7.73,7.73,0,0,0-.95.07,3.27,3.27,0,0,0-.87.26,1.63,1.63,0,0,0-.63.53,1.55,1.55,0,0,0-.23.86,1.52,1.52,0,0,0,.63,1.4A3.29,3.29,0,0,0,17.55,74.84Z"/><path class="cls-6" d="M35.26,75.59a5.6,5.6,0,0,1-1.49,4.31,6.64,6.64,0,0,1-4.59,1.36A13.2,13.2,0,0,1,25,80.58l.52-2.42a9.61,9.61,0,0,0,1.66.49,9.9,9.9,0,0,0,2,.19,3.46,3.46,0,0,0,2.45-.71A2.77,2.77,0,0,0,32.41,76v-.47a7.47,7.47,0,0,1-1.12.42,5.47,5.47,0,0,1-1.59.21,6,6,0,0,1-2.16-.37,4.45,4.45,0,0,1-1.67-1.11,5.12,5.12,0,0,1-1.08-1.82,7.55,7.55,0,0,1-.39-2.53,7.23,7.23,0,0,1,.41-2.47A5.35,5.35,0,0,1,26,66a5.51,5.51,0,0,1,1.92-1.25,6.93,6.93,0,0,1,2.57-.45,14.85,14.85,0,0,1,2.64.22c.83.14,1.54.29,2.12.44Zm-7.94-5.22A3.7,3.7,0,0,0,28.11,73a2.68,2.68,0,0,0,2,.84,4.13,4.13,0,0,0,1.28-.19,3.31,3.31,0,0,0,1-.45V66.84a7.61,7.61,0,0,0-.75-.13,8.84,8.84,0,0,0-1.13-.06,2.87,2.87,0,0,0-2.38,1A4.13,4.13,0,0,0,27.32,70.37Z"/><path class="cls-6" d="M49.32,70.67a7.73,7.73,0,0,1-.43,2.66,5.87,5.87,0,0,1-1.2,2,5.57,5.57,0,0,1-1.87,1.32,6.14,6.14,0,0,1-2.42.47A6,6,0,0,1,41,76.7a5.63,5.63,0,0,1-1.86-1.32,6.07,6.07,0,0,1-1.22-2,7.73,7.73,0,0,1-.43-2.66A7.62,7.62,0,0,1,37.92,68a5.89,5.89,0,0,1,1.23-2A5.34,5.34,0,0,1,41,64.69a6.41,6.41,0,0,1,4.77,0A5.29,5.29,0,0,1,47.67,66a6,6,0,0,1,1.21,2A7.61,7.61,0,0,1,49.32,70.67Zm-2.93,0a4.82,4.82,0,0,0-.78-2.9A2.59,2.59,0,0,0,43.4,66.7a2.56,2.56,0,0,0-2.2,1.07,4.75,4.75,0,0,0-.79,2.9,4.86,4.86,0,0,0,.79,2.94,2.55,2.55,0,0,0,2.2,1.09,2.58,2.58,0,0,0,2.21-1.09A4.93,4.93,0,0,0,46.39,70.67Z"/><path class="cls-6" d="M63.65,70.67a8,8,0,0,1-.42,2.66,6.05,6.05,0,0,1-1.21,2,5.47,5.47,0,0,1-1.87,1.32,6.13,6.13,0,0,1-2.41.47,6,6,0,0,1-2.41-.47,5.63,5.63,0,0,1-1.86-1.32,6.05,6.05,0,0,1-1.21-2,7.5,7.5,0,0,1-.44-2.66A7.39,7.39,0,0,1,52.26,68a5.87,5.87,0,0,1,1.22-2,5.43,5.43,0,0,1,1.87-1.3,6.44,6.44,0,0,1,4.78,0A5.25,5.25,0,0,1,62,66a6,6,0,0,1,1.21,2A7.61,7.61,0,0,1,63.65,70.67Zm-2.92,0a4.82,4.82,0,0,0-.79-2.9,2.81,2.81,0,0,0-4.41,0,4.82,4.82,0,0,0-.79,2.9,4.93,4.93,0,0,0,.79,2.94,2.78,2.78,0,0,0,4.41,0A4.93,4.93,0,0,0,60.73,70.67Z"/><path class="cls-6" d="M66.12,64.93a20.08,20.08,0,0,1,2.14-.44,17.44,17.44,0,0,1,2.92-.22,6.57,6.57,0,0,1,2.52.42,3.82,3.82,0,0,1,1.62,1.15,4.45,4.45,0,0,1,.85,1.79,10.19,10.19,0,0,1,.24,2.29v6.92H73.56V70.37a9,9,0,0,0-.13-1.68A2.93,2.93,0,0,0,73,67.56a1.69,1.69,0,0,0-.8-.64,3.46,3.46,0,0,0-1.24-.2,8.9,8.9,0,0,0-1.13.07l-.87.12v9.93H66.12Z"/><polygon class="cls-6" points="3.26 63.23 3.26 74.27 10.62 74.27 10.62 76.84 0.29 76.84 0.29 63.23 3.26 63.23"/></g></g></g></svg>