<svg xmlns="http://www.w3.org/2000/svg" viewBox="0 0 101 101"><defs><style>.cls-1{isolation:isolate;}.cls-2{fill:#b8283d;}.cls-3,.cls-7{fill:#676666;opacity:0.4;}.cls-3,.cls-4{mix-blend-mode:multiply;}.cls-4{fill:#333541;opacity:0.5;}.cls-5{fill:#009874;}.cls-6{fill:#072146;}.cls-8{fill:none;stroke:#e000e0;stroke-miterlimit:10;}</style></defs><title>Recurso 14</title><g class="cls-1"><g id="Capa_2" data-name="Capa 2"><g id="Capa_1-2" data-name="Capa 1"><polygon class="cls-2" points="56.15 24.05 53.95 33.58 44.46 33.58 46.66 24.05 56.15 24.05"/><polygon class="cls-3" points="55.54 47.88 57.74 38.35 58.84 33.58 61.04 24.05 56.15 24.05 53.95 33.58 52.85 38.35 50.65 47.88 55.54 47.88"/><polygon class="cls-4" points="45.07 9.75 42.87 19.28 41.77 24.05 39.57 33.58 44.46 33.58 46.66 24.05 47.76 19.28 49.96 9.75 45.07 9.75"/><polygon class="cls-4" points="66.06 33.58 44.46 33.58 43.36 38.35 64.96 38.35 66.06 33.58"/><polygon class="cls-5" points="69.37 19.28 62.14 19.28 64.34 9.75 59.45 9.75 57.25 19.28 56.15 24.05 68.27 24.05 69.37 19.28"/><polygon class="cls-6" points="31.24 38.35 38.47 38.35 36.27 47.88 41.16 47.88 43.36 38.35 44.46 33.58 32.34 33.58 31.24 38.35"/><polygon class="cls-7" points="35.64 19.28 34.54 24.05 56.15 24.05 57.25 19.28 35.64 19.28"/><path class="cls-6" d="M17.34,67.9c.33-.67.67-1.45,1-2.32s.68-1.77,1-2.7.62-1.88.9-2.83.51-1.84.7-2.67h1.53c-.29,1.12-.6,2.21-.95,3.3s-.72,2.14-1.1,3.17-.79,2-1.21,3S18.4,68.7,18,69.55H16.58c-.41-.85-.82-1.75-1.23-2.71s-.81-2-1.2-3-.76-2.09-1.11-3.17-.66-2.18-.94-3.3h1.62c.19.83.42,1.72.7,2.67s.57,1.89.9,2.83.66,1.83,1,2.7S17,67.23,17.34,67.9Z"/><path class="cls-6" d="M30.66,53.71a1.13,1.13,0,1,1-1.93-.86,1.19,1.19,0,0,1,1.6,0A1.14,1.14,0,0,1,30.66,53.71Zm-.35,15.84H28.78V57.38h1.53Z"/><path class="cls-6" d="M42.56,57.15a8.11,8.11,0,0,1,1.43.12,3.82,3.82,0,0,1,.93.23l-.31,1.32a3.44,3.44,0,0,0-.76-.2,8.78,8.78,0,0,0-1.52-.11,7.47,7.47,0,0,0-1.59.14,4.94,4.94,0,0,0-.79.24V69.55H38.42V58A10.24,10.24,0,0,1,40,57.42,10.12,10.12,0,0,1,42.56,57.15Z"/><path class="cls-6" d="M53,57.38h4.85v1.3H53v6.47a6.42,6.42,0,0,0,.18,1.68,2.29,2.29,0,0,0,.5,1,1.67,1.67,0,0,0,.8.47,4.24,4.24,0,0,0,1,.12A4.47,4.47,0,0,0,57,68.19a5.56,5.56,0,0,0,.92-.41l.37,1.27a6,6,0,0,1-1.15.49,5.74,5.74,0,0,1-1.79.27,5.22,5.22,0,0,1-1.9-.3,2.73,2.73,0,0,1-1.23-.89,3.67,3.67,0,0,1-.64-1.5A10,10,0,0,1,51.43,65V53.81L53,53.52Z"/><path class="cls-6" d="M73.57,69.12c-.45.13-1.07.27-1.84.43a15,15,0,0,1-2.82.23,5.66,5.66,0,0,1-2.29-.4,3.68,3.68,0,0,1-1.49-1.13,4.69,4.69,0,0,1-.81-1.76,10.08,10.08,0,0,1-.25-2.28V57.38h1.54v6.33a11.37,11.37,0,0,0,.18,2.19,3.52,3.52,0,0,0,.62,1.45,2.43,2.43,0,0,0,1.09.8,4.94,4.94,0,0,0,1.64.24A14.81,14.81,0,0,0,71,68.28a4.5,4.5,0,0,0,1-.22V57.38h1.53Z"/><path class="cls-6" d="M84.18,57.1a5.29,5.29,0,0,1,2,.34,3.56,3.56,0,0,1,1.36.94,3.7,3.7,0,0,1,.75,1.43,6.33,6.33,0,0,1,.24,1.78v7.67c-.16,0-.39.1-.68.16l-1,.17c-.39.07-.83.12-1.31.16s-1,.06-1.47.06a7.05,7.05,0,0,1-1.78-.22,4,4,0,0,1-1.42-.67,3.11,3.11,0,0,1-.94-1.17A4.06,4.06,0,0,1,79.58,66,3.57,3.57,0,0,1,80,64.3,3.1,3.1,0,0,1,81,63.14a4.86,4.86,0,0,1,1.62-.68,9.49,9.49,0,0,1,2-.21,5.69,5.69,0,0,1,.7,0c.24,0,.48.05.71.09l.59.12a1.49,1.49,0,0,1,.34.11v-.76a7.12,7.12,0,0,0-.1-1.23,2.67,2.67,0,0,0-.41-1.08,2.26,2.26,0,0,0-.89-.78,3.34,3.34,0,0,0-1.52-.3,8.15,8.15,0,0,0-2,.19c-.44.13-.76.23-1,.31l-.22-1.34a5,5,0,0,1,1.24-.35A10.58,10.58,0,0,1,84.18,57.1Zm.14,11.34c.59,0,1.12,0,1.56-.06s.83-.09,1.15-.15V64a5.07,5.07,0,0,0-.83-.25,7,7,0,0,0-1.55-.13,9.75,9.75,0,0,0-1.18.08,3.48,3.48,0,0,0-1.13.36,2.25,2.25,0,0,0-.85.74A2.12,2.12,0,0,0,81.16,66a2.7,2.7,0,0,0,.22,1.16,1.87,1.87,0,0,0,.64.75,2.62,2.62,0,0,0,1,.41A5.75,5.75,0,0,0,84.32,68.44Z"/><path class="cls-6" d="M29.41,74a6.81,6.81,0,0,1,2.38.36,3.71,3.71,0,0,1,1.55,1,3.63,3.63,0,0,1,.82,1.54,7.25,7.25,0,0,1,.25,2V86.3c-.44.1-1.1.21-2,.34a19.55,19.55,0,0,1-3,.2,9.08,9.08,0,0,1-2-.21A4.32,4.32,0,0,1,25.82,86a3.18,3.18,0,0,1-1-1.22,4.14,4.14,0,0,1-.37-1.86,3.64,3.64,0,0,1,.41-1.79A3.45,3.45,0,0,1,26,79.89a5.22,5.22,0,0,1,1.64-.66,9.48,9.48,0,0,1,1.95-.2,8.74,8.74,0,0,1,1,.06,10.34,10.34,0,0,1,1.1.2v-.47a4.1,4.1,0,0,0-.11-.94,2,2,0,0,0-.42-.79,1.89,1.89,0,0,0-.77-.53,3.55,3.55,0,0,0-1.22-.19,10.11,10.11,0,0,0-1.81.15,8.45,8.45,0,0,0-1.35.32l-.35-2.3a11.17,11.17,0,0,1,1.58-.38A12.9,12.9,0,0,1,29.41,74Zm.24,10.62a9.94,9.94,0,0,0,2-.15V81.29a5.18,5.18,0,0,0-.68-.14,6.07,6.07,0,0,0-1-.07,6.16,6.16,0,0,0-.95.07,2.92,2.92,0,0,0-.88.26,1.6,1.6,0,0,0-.62.53,1.46,1.46,0,0,0-.24.86,1.52,1.52,0,0,0,.64,1.4A3.27,3.27,0,0,0,29.65,84.59Z"/><path class="cls-6" d="M47.36,85.34a5.54,5.54,0,0,1-1.5,4.3A6.62,6.62,0,0,1,41.28,91a12.36,12.36,0,0,1-2.21-.19,13.38,13.38,0,0,1-1.94-.49l.52-2.43a8.79,8.79,0,0,0,1.66.5,10.58,10.58,0,0,0,2,.19,3.48,3.48,0,0,0,2.45-.71,2.81,2.81,0,0,0,.73-2.09v-.48a6.78,6.78,0,0,1-1.12.43A5.57,5.57,0,0,1,41.8,86a6,6,0,0,1-2.16-.38A4.55,4.55,0,0,1,38,84.47a5,5,0,0,1-1.09-1.83,7.45,7.45,0,0,1-.39-2.52,7.09,7.09,0,0,1,.42-2.48,5.13,5.13,0,0,1,1.2-1.92A5.33,5.33,0,0,1,40,74.47,6.89,6.89,0,0,1,42.6,74a16,16,0,0,1,2.64.21c.83.14,1.54.29,2.12.45Zm-7.94-5.22a3.72,3.72,0,0,0,.79,2.64,2.65,2.65,0,0,0,2,.84,4.47,4.47,0,0,0,1.29-.19,3.91,3.91,0,0,0,1-.45V76.59c-.21,0-.46-.09-.76-.13a8.73,8.73,0,0,0-1.13-.06,2.88,2.88,0,0,0-2.38,1A4.16,4.16,0,0,0,39.42,80.12Z"/><path class="cls-6" d="M61.41,80.42A8,8,0,0,1,61,83.08a5.87,5.87,0,0,1-1.2,2,5.44,5.44,0,0,1-1.88,1.31,6.41,6.41,0,0,1-4.82,0,5.46,5.46,0,0,1-1.86-1.31,6.05,6.05,0,0,1-1.21-2,8.23,8.23,0,0,1,0-5.31,6,6,0,0,1,1.22-2,5.5,5.5,0,0,1,1.88-1.31A6.12,6.12,0,0,1,55.5,74a6.24,6.24,0,0,1,2.39.46,5.19,5.19,0,0,1,1.87,1.31,6,6,0,0,1,1.22,2A7.71,7.71,0,0,1,61.41,80.42Zm-2.92,0a4.75,4.75,0,0,0-.79-2.9,2.79,2.79,0,0,0-4.41,0,4.82,4.82,0,0,0-.78,2.9,4.93,4.93,0,0,0,.78,2.94,2.79,2.79,0,0,0,4.41,0A4.86,4.86,0,0,0,58.49,80.42Z"/><path class="cls-6" d="M75.75,80.42a7.77,7.77,0,0,1-.43,2.66,5.87,5.87,0,0,1-1.2,2,5.4,5.4,0,0,1-1.87,1.31,6,6,0,0,1-2.42.47,5.84,5.84,0,0,1-2.4-.47,5.27,5.27,0,0,1-1.86-1.31,6.07,6.07,0,0,1-1.22-2,8.41,8.41,0,0,1,0-5.31,5.85,5.85,0,0,1,1.23-2,5.36,5.36,0,0,1,1.87-1.31A6.16,6.16,0,0,1,69.83,74a6.24,6.24,0,0,1,2.39.46,5.31,5.31,0,0,1,1.88,1.31,6,6,0,0,1,1.21,2A7.71,7.71,0,0,1,75.75,80.42Zm-2.93,0a4.75,4.75,0,0,0-.79-2.9,2.78,2.78,0,0,0-4.4,0,4.75,4.75,0,0,0-.79,2.9,4.86,4.86,0,0,0,.79,2.94,2.78,2.78,0,0,0,4.4,0A4.86,4.86,0,0,0,72.82,80.42Z"/><path class="cls-6" d="M78.21,74.68a18.25,18.25,0,0,1,2.15-.45A18.63,18.63,0,0,1,83.28,74a6.85,6.85,0,0,1,2.52.41,4,4,0,0,1,1.61,1.16,4.34,4.34,0,0,1,.85,1.78,9.77,9.77,0,0,1,.25,2.3v6.92H85.66V80.12a10.1,10.1,0,0,0-.13-1.69,3,3,0,0,0-.43-1.13,1.62,1.62,0,0,0-.8-.63,3.41,3.41,0,0,0-1.23-.2,9.05,9.05,0,0,0-1.14.07l-.87.12v9.93H78.21Z"/><polygon class="cls-6" points="15.36 72.98 15.36 84.02 22.71 84.02 22.71 86.58 12.39 86.58 12.39 72.98 15.36 72.98"/><path class="cls-6" d="M17.34,67.9c.33-.67.67-1.45,1-2.32s.68-1.77,1-2.7.62-1.88.9-2.83.51-1.84.7-2.67h1.53c-.29,1.12-.6,2.21-.95,3.3s-.72,2.14-1.1,3.17-.79,2-1.21,3S18.4,68.7,18,69.55H16.58c-.41-.85-.82-1.75-1.23-2.71s-.81-2-1.2-3-.76-2.09-1.11-3.17-.66-2.18-.94-3.3h1.62c.19.83.42,1.72.7,2.67s.57,1.89.9,2.83.66,1.83,1,2.7S17,67.23,17.34,67.9Z"/><path class="cls-6" d="M30.66,53.71a1.13,1.13,0,1,1-1.93-.86,1.19,1.19,0,0,1,1.6,0A1.14,1.14,0,0,1,30.66,53.71Zm-.35,15.84H28.78V57.38h1.53Z"/><path class="cls-6" d="M42.56,57.15a8.11,8.11,0,0,1,1.43.12,3.82,3.82,0,0,1,.93.23l-.31,1.32a3.44,3.44,0,0,0-.76-.2,8.78,8.78,0,0,0-1.52-.11,7.47,7.47,0,0,0-1.59.14,4.94,4.94,0,0,0-.79.24V69.55H38.42V58A10.24,10.24,0,0,1,40,57.42,10.12,10.12,0,0,1,42.56,57.15Z"/><path class="cls-6" d="M53,57.38h4.85v1.3H53v6.47a6.42,6.42,0,0,0,.18,1.68,2.29,2.29,0,0,0,.5,1,1.67,1.67,0,0,0,.8.47,4.24,4.24,0,0,0,1,.12A4.47,4.47,0,0,0,57,68.19a5.56,5.56,0,0,0,.92-.41l.37,1.27a6,6,0,0,1-1.15.49,5.74,5.74,0,0,1-1.79.27,5.22,5.22,0,0,1-1.9-.3,2.73,2.73,0,0,1-1.23-.89,3.67,3.67,0,0,1-.64-1.5A10,10,0,0,1,51.43,65V53.81L53,53.52Z"/><path class="cls-6" d="M73.57,69.12c-.45.13-1.07.27-1.84.43a15,15,0,0,1-2.82.23,5.66,5.66,0,0,1-2.29-.4,3.68,3.68,0,0,1-1.49-1.13,4.69,4.69,0,0,1-.81-1.76,10.08,10.08,0,0,1-.25-2.28V57.38h1.54v6.33a11.37,11.37,0,0,0,.18,2.19,3.52,3.52,0,0,0,.62,1.45,2.43,2.43,0,0,0,1.09.8,4.94,4.94,0,0,0,1.64.24A14.81,14.81,0,0,0,71,68.28a4.5,4.5,0,0,0,1-.22V57.38h1.53Z"/><path class="cls-6" d="M84.18,57.1a5.29,5.29,0,0,1,2,.34,3.56,3.56,0,0,1,1.36.94,3.7,3.7,0,0,1,.75,1.43,6.33,6.33,0,0,1,.24,1.78v7.67c-.16,0-.39.1-.68.16l-1,.17c-.39.07-.83.12-1.31.16s-1,.06-1.47.06a7.05,7.05,0,0,1-1.78-.22,4,4,0,0,1-1.42-.67,3.11,3.11,0,0,1-.94-1.17A4.06,4.06,0,0,1,79.58,66,3.57,3.57,0,0,1,80,64.3,3.1,3.1,0,0,1,81,63.14a4.86,4.86,0,0,1,1.62-.68,9.49,9.49,0,0,1,2-.21,5.69,5.69,0,0,1,.7,0c.24,0,.48.05.71.09l.59.12a1.49,1.49,0,0,1,.34.11v-.76a7.12,7.12,0,0,0-.1-1.23,2.67,2.67,0,0,0-.41-1.08,2.26,2.26,0,0,0-.89-.78,3.34,3.34,0,0,0-1.52-.3,8.15,8.15,0,0,0-2,.19c-.44.13-.76.23-1,.31l-.22-1.34a5,5,0,0,1,1.24-.35A10.58,10.58,0,0,1,84.18,57.1Zm.14,11.34c.59,0,1.12,0,1.56-.06s.83-.09,1.15-.15V64a5.07,5.07,0,0,0-.83-.25,7,7,0,0,0-1.55-.13,9.75,9.75,0,0,0-1.18.08,3.48,3.48,0,0,0-1.13.36,2.25,2.25,0,0,0-.85.74A2.12,2.12,0,0,0,81.16,66a2.7,2.7,0,0,0,.22,1.16,1.87,1.87,0,0,0,.64.75,2.62,2.62,0,0,0,1,.41A5.75,5.75,0,0,0,84.32,68.44Z"/><path class="cls-6" d="M29.41,74a6.81,6.81,0,0,1,2.38.36,3.71,3.71,0,0,1,1.55,1,3.63,3.63,0,0,1,.82,1.54,7.25,7.25,0,0,1,.25,2V86.3c-.44.1-1.1.21-2,.34a19.55,19.55,0,0,1-3,.2,9.08,9.08,0,0,1-2-.21A4.32,4.32,0,0,1,25.82,86a3.18,3.18,0,0,1-1-1.22,4.14,4.14,0,0,1-.37-1.86,3.64,3.64,0,0,1,.41-1.79A3.45,3.45,0,0,1,26,79.89a5.22,5.22,0,0,1,1.64-.66,9.48,9.48,0,0,1,1.95-.2,8.74,8.74,0,0,1,1,.06,10.34,10.34,0,0,1,1.1.2v-.47a4.1,4.1,0,0,0-.11-.94,2,2,0,0,0-.42-.79,1.89,1.89,0,0,0-.77-.53,3.55,3.55,0,0,0-1.22-.19,10.11,10.11,0,0,0-1.81.15,8.45,8.45,0,0,0-1.35.32l-.35-2.3a11.17,11.17,0,0,1,1.58-.38A12.9,12.9,0,0,1,29.41,74Zm.24,10.62a9.94,9.94,0,0,0,2-.15V81.29a5.18,5.18,0,0,0-.68-.14,6.07,6.07,0,0,0-1-.07,6.16,6.16,0,0,0-.95.07,2.92,2.92,0,0,0-.88.26,1.6,1.6,0,0,0-.62.53,1.46,1.46,0,0,0-.24.86,1.52,1.52,0,0,0,.64,1.4A3.27,3.27,0,0,0,29.65,84.59Z"/><path class="cls-6" d="M47.36,85.34a5.54,5.54,0,0,1-1.5,4.3A6.62,6.62,0,0,1,41.28,91a12.36,12.36,0,0,1-2.21-.19,13.38,13.38,0,0,1-1.94-.49l.52-2.43a8.79,8.79,0,0,0,1.66.5,10.58,10.58,0,0,0,2,.19,3.48,3.48,0,0,0,2.45-.71,2.81,2.81,0,0,0,.73-2.09v-.48a6.78,6.78,0,0,1-1.12.43A5.57,5.57,0,0,1,41.8,86a6,6,0,0,1-2.16-.38A4.55,4.55,0,0,1,38,84.47a5,5,0,0,1-1.09-1.83,7.45,7.45,0,0,1-.39-2.52,7.09,7.09,0,0,1,.42-2.48,5.13,5.13,0,0,1,1.2-1.92A5.33,5.33,0,0,1,40,74.47,6.89,6.89,0,0,1,42.6,74a16,16,0,0,1,2.64.21c.83.14,1.54.29,2.12.45Zm-7.94-5.22a3.72,3.72,0,0,0,.79,2.64,2.65,2.65,0,0,0,2,.84,4.47,4.47,0,0,0,1.29-.19,3.91,3.91,0,0,0,1-.45V76.59c-.21,0-.46-.09-.76-.13a8.73,8.73,0,0,0-1.13-.06,2.88,2.88,0,0,0-2.38,1A4.16,4.16,0,0,0,39.42,80.12Z"/><path class="cls-6" d="M61.41,80.42A8,8,0,0,1,61,83.08a5.87,5.87,0,0,1-1.2,2,5.44,5.44,0,0,1-1.88,1.31,6.41,6.41,0,0,1-4.82,0,5.46,5.46,0,0,1-1.86-1.31,6.05,6.05,0,0,1-1.21-2,8.23,8.23,0,0,1,0-5.31,6,6,0,0,1,1.22-2,5.5,5.5,0,0,1,1.88-1.31A6.12,6.12,0,0,1,55.5,74a6.24,6.24,0,0,1,2.39.46,5.19,5.19,0,0,1,1.87,1.31,6,6,0,0,1,1.22,2A7.71,7.71,0,0,1,61.41,80.42Zm-2.92,0a4.75,4.75,0,0,0-.79-2.9,2.79,2.79,0,0,0-4.41,0,4.82,4.82,0,0,0-.78,2.9,4.93,4.93,0,0,0,.78,2.94,2.79,2.79,0,0,0,4.41,0A4.86,4.86,0,0,0,58.49,80.42Z"/><path class="cls-6" d="M75.75,80.42a7.77,7.77,0,0,1-.43,2.66,5.87,5.87,0,0,1-1.2,2,5.4,5.4,0,0,1-1.87,1.31,6,6,0,0,1-2.42.47,5.84,5.84,0,0,1-2.4-.47,5.27,5.27,0,0,1-1.86-1.31,6.07,6.07,0,0,1-1.22-2,8.41,8.41,0,0,1,0-5.31,5.85,5.85,0,0,1,1.23-2,5.36,5.36,0,0,1,1.87-1.31A6.16,6.16,0,0,1,69.83,74a6.24,6.24,0,0,1,2.39.46,5.31,5.31,0,0,1,1.88,1.31,6,6,0,0,1,1.21,2A7.71,7.71,0,0,1,75.75,80.42Zm-2.93,0a4.75,4.75,0,0,0-.79-2.9,2.78,2.78,0,0,0-4.4,0,4.75,4.75,0,0,0-.79,2.9,4.86,4.86,0,0,0,.79,2.94,2.78,2.78,0,0,0,4.4,0A4.86,4.86,0,0,0,72.82,80.42Z"/><path class="cls-6" d="M78.21,74.68a18.25,18.25,0,0,1,2.15-.45A18.63,18.63,0,0,1,83.28,74a6.85,6.85,0,0,1,2.52.41,4,4,0,0,1,1.61,1.16,4.34,4.34,0,0,1,.85,1.78,9.77,9.77,0,0,1,.25,2.3v6.92H85.66V80.12a10.1,10.1,0,0,0-.13-1.69,3,3,0,0,0-.43-1.13,1.62,1.62,0,0,0-.8-.63,3.41,3.41,0,0,0-1.23-.2,9.05,9.05,0,0,0-1.14.07l-.87.12v9.93H78.21Z"/><polygon class="cls-6" points="15.36 72.98 15.36 84.02 22.71 84.02 22.71 86.58 12.39 86.58 12.39 72.98 15.36 72.98"/><rect class="cls-8" x="0.5" y="0.5" width="100" height="100"/></g></g></g></svg>